<svg width="982" height="496" viewBox="0 0 982 496" fill="none" xmlns="http://www.w3.org/2000/svg">
<rect width="982" height="496" rx="100" fill="white"/>
<path d="M142.803 352V170.182H181.244V320.306H259.191V352H142.803ZM444.649 261.091C444.649 280.918 440.891 297.786 433.374 311.695C425.917 325.603 415.737 336.227 402.835 343.566C389.991 350.846 375.55 354.486 359.511 354.486C343.353 354.486 328.853 350.816 316.009 343.477C303.166 336.138 293.016 325.514 285.558 311.606C278.101 297.697 274.372 280.859 274.372 261.091C274.372 241.264 278.101 224.396 285.558 210.487C293.016 196.579 303.166 185.984 316.009 178.705C328.853 171.366 343.353 167.696 359.511 167.696C375.55 167.696 389.991 171.366 402.835 178.705C415.737 185.984 425.917 196.579 433.374 210.487C440.891 224.396 444.649 241.264 444.649 261.091ZM405.675 261.091C405.675 248.248 403.752 237.417 399.905 228.598C396.117 219.779 390.761 213.091 383.836 208.534C376.911 203.977 368.803 201.698 359.511 201.698C350.219 201.698 342.11 203.977 335.185 208.534C328.261 213.091 322.875 219.779 319.028 228.598C315.24 237.417 313.346 248.248 313.346 261.091C313.346 273.934 315.24 284.765 319.028 293.584C322.875 302.402 328.261 309.09 335.185 313.648C342.11 318.205 350.219 320.484 359.511 320.484C368.803 320.484 376.911 318.205 383.836 313.648C390.761 309.09 396.117 302.402 399.905 293.584C403.752 284.765 405.675 273.934 405.675 261.091ZM593.686 228.953C592.443 224.633 590.697 220.815 588.448 217.501C586.199 214.127 583.447 211.286 580.192 208.978C576.996 206.611 573.326 204.805 569.183 203.562C565.099 202.32 560.572 201.698 555.6 201.698C546.308 201.698 538.14 204.006 531.097 208.623C524.113 213.239 518.668 219.957 514.762 228.776C510.856 237.535 508.903 248.248 508.903 260.913C508.903 273.579 510.826 284.351 514.673 293.229C518.52 302.107 523.965 308.883 531.008 313.559C538.051 318.175 546.367 320.484 555.955 320.484C564.655 320.484 572.083 318.945 578.238 315.867C584.453 312.73 589.188 308.321 592.443 302.639C595.757 296.957 597.415 290.24 597.415 282.487L605.227 283.641H558.352V254.699H634.435V277.604C634.435 293.584 631.062 307.315 624.314 318.797C617.567 330.22 608.275 339.038 596.438 345.253C584.601 351.408 571.047 354.486 555.778 354.486C538.732 354.486 523.758 350.728 510.856 343.211C497.953 335.635 487.892 324.893 480.671 310.984C473.51 297.017 469.929 280.445 469.929 261.268C469.929 246.531 472.059 233.392 476.321 221.851C480.641 210.25 486.678 200.426 494.432 192.376C502.185 184.327 511.211 178.201 521.509 173.999C531.807 169.797 542.964 167.696 554.979 167.696C565.277 167.696 574.865 169.205 583.743 172.224C592.621 175.183 600.492 179.385 607.358 184.83C614.282 190.275 619.935 196.756 624.314 204.273C628.694 211.73 631.506 219.957 632.748 228.953H593.686ZM830.391 261.091C830.391 280.918 826.633 297.786 819.116 311.695C811.659 325.603 801.479 336.227 788.577 343.566C775.733 350.846 761.292 354.486 745.253 354.486C729.095 354.486 714.595 350.816 701.751 343.477C688.908 336.138 678.758 325.514 671.3 311.606C663.843 297.697 660.114 280.859 660.114 261.091C660.114 241.264 663.843 224.396 671.3 210.487C678.758 196.579 688.908 185.984 701.751 178.705C714.595 171.366 729.095 167.696 745.253 167.696C761.292 167.696 775.733 171.366 788.577 178.705C801.479 185.984 811.659 196.579 819.116 210.487C826.633 224.396 830.391 241.264 830.391 261.091ZM791.418 261.091C791.418 248.248 789.494 237.417 785.647 228.598C781.859 219.779 776.503 213.091 769.578 208.534C762.653 203.977 754.545 201.698 745.253 201.698C735.961 201.698 727.852 203.977 720.928 208.534C714.003 213.091 708.617 219.779 704.77 228.598C700.982 237.417 699.088 248.248 699.088 261.091C699.088 273.934 700.982 284.765 704.77 293.584C708.617 302.402 714.003 309.09 720.928 313.648C727.852 318.205 735.961 320.484 745.253 320.484C754.545 320.484 762.653 318.205 769.578 313.648C776.503 309.09 781.859 302.402 785.647 293.584C789.494 284.765 791.418 273.934 791.418 261.091Z" fill="black"/>
</svg>
